<svg width="72" height="75" viewBox="0 0 72 75" fill="none" xmlns="http://www.w3.org/2000/svg">
<path d="M36.3013 18.4508C26.1525 18.3603 17.8913 26.7033 17.7983 37.1373C17.7052 47.5712 25.8163 56.0603 35.9651 56.1508C46.1139 56.2413 54.3751 47.8983 54.4681 37.4643C54.5612 27.0303 46.4501 18.5413 36.3013 18.4508ZM36.0239 49.5558C29.4655 49.4973 24.1528 43.9536 24.2131 37.1945C24.2734 30.4354 29.6681 24.9872 36.2425 25.0458C42.8169 25.1044 48.1136 30.648 48.0533 37.4071C47.993 44.1662 42.5824 49.6143 36.0239 49.5558ZM59.6696 17.888C59.6478 20.3325 57.7156 22.2677 55.3539 22.2466C52.9762 22.2254 51.0949 20.2398 51.1165 17.8118C51.1382 15.3837 53.0706 13.4321 55.4323 13.4532C57.794 13.4743 59.6913 15.46 59.6696 17.888ZM71.7733 22.4587C71.5546 16.5666 70.2926 11.338 66.1342 7.00229C61.9917 2.66674 56.9293 1.27622 51.2032 0.929836C45.3021 0.532666 27.6055 0.37485 21.6982 0.666715C15.983 0.894665 10.8966 2.19467 6.66153 6.45551C2.42643 10.7164 1.08737 15.9218 0.747611 21.8089C0.358376 27.8759 0.196127 46.0697 0.477098 52.1428C0.695849 58.0348 1.95782 63.2635 6.11626 67.5992C10.2747 71.9349 15.3212 73.3252 21.0472 73.6716C26.9483 74.0688 44.6449 74.2266 50.5522 73.9347C56.2834 73.7069 61.3698 72.4069 65.5891 68.1295C69.8082 63.8686 71.1632 58.6632 71.503 52.7762C71.8922 46.7091 72.0543 28.5317 71.7733 22.4587ZM63.8173 59.2212C62.544 62.4256 60.1123 64.8813 56.9572 66.1494C52.2327 68.0268 41.0665 67.4843 35.8644 67.4379C30.6624 67.3915 19.4725 67.7183 14.798 65.7734C11.6818 64.4659 9.29436 61.9671 8.06255 58.724C6.23871 53.8677 6.77197 42.3876 6.81966 37.0394C6.86736 31.6912 6.55503 20.1871 8.44909 15.3804C9.72243 12.176 12.1541 9.72024 15.3092 8.45224C20.0337 6.57476 31.1999 7.11733 36.402 7.16372C41.604 7.21011 52.7939 6.88332 57.4684 8.82821C60.5846 10.1357 62.972 12.6345 64.2038 15.8776C66.0277 20.7339 65.4944 32.214 65.4467 37.5622C65.399 42.9104 65.7273 54.4146 63.8173 59.2212Z" fill="#A29F9F"/>
</svg>
