<svg width="79" height="64" viewBox="0 0 79 64" fill="none" xmlns="http://www.w3.org/2000/svg">
<path d="M77.2038 10.3574C76.2987 6.47729 73.632 3.42146 70.2462 2.38442C64.1091 0.5 39.5 0.5 39.5 0.5C39.5 0.5 14.8911 0.5 8.75382 2.38442C5.36797 3.42163 2.70131 6.47729 1.79623 10.3574C0.151794 17.3902 0.151794 32.0637 0.151794 32.0637C0.151794 32.0637 0.151794 46.7371 1.79623 53.7699C2.70131 57.65 5.36797 60.5785 8.75382 61.6156C14.8911 63.5 39.5 63.5 39.5 63.5C39.5 63.5 64.1089 63.5 70.2462 61.6156C73.632 60.5785 76.2987 57.65 77.2038 53.7699C78.8482 46.7371 78.8482 32.0637 78.8482 32.0637C78.8482 32.0637 78.8482 17.3902 77.2038 10.3574ZM31.4514 45.386V18.7413L52.0197 32.064L31.4514 45.386Z" fill="#A29F9F"/>
</svg>
